<svg width="117" height="22" viewBox="0 0 117 22" fill="none" xmlns="http://www.w3.org/2000/svg">
<g clip-path="url(#clip0_79_2862)">
<path d="M24.3776 6.45972C23.3932 6.45972 22.5815 7.23908 22.5815 8.22177V11.9491V15.6764H24.3776V11.9491V8.22177H26.5191H28.6606V6.45972H26.5191H24.3776Z" fill="#E1E1E6"/>
<path d="M39.368 11.051V8.20467C39.368 7.23894 38.5736 6.44263 37.5719 6.44263H34.6705H31.7691C30.7847 6.44263 29.973 7.22198 29.973 8.20467V11.051V13.8973C29.973 14.863 30.7674 15.6594 31.7691 15.6594H34.6705H37.5719C38.5563 15.6594 39.368 14.88 39.368 13.8973V11.051ZM37.5719 11.051V13.8973H34.6705H31.7691V11.051V8.20467H34.6705H37.5719V11.051Z" fill="#E1E1E6"/>
<path d="M42.9603 6.45972C41.976 6.45972 41.1642 7.23908 41.1642 8.22177V11.068V13.9144C41.1642 14.8801 41.9587 15.6764 42.9603 15.6764L49.2812 15.5917V13.9144H42.9603V11.068V8.22177H49.2812V6.5444L42.9603 6.45972Z" fill="#E1E1E6"/>
<path d="M59.5759 6.45972H57.1408L53.5831 10.1701H52.875V6.45972H51.0789V11.0512V15.6595H52.875V11.9321H53.7731H53.9113L57.6071 15.6595H60.0768L55.3274 10.8479L59.5759 6.45972Z" fill="#E1E1E6"/>
<path d="M62.2512 13.8973V11.932L69.8503 11.8473V10.17V8.20467C69.8503 7.23894 69.0554 6.44263 68.0537 6.44263H65.1528H62.2512C61.2668 6.44263 60.4551 7.22198 60.4551 8.20467V11.051V13.8973C60.4551 14.863 61.2495 15.6594 62.2512 15.6594L69.8503 15.5747V13.8973H62.2512ZM62.2512 8.20467H65.1528H68.0537V10.17H66.0504H62.2512V8.20467Z" fill="#E1E1E6"/>
<path d="M74.3574 3.76611H73.6671L72.5615 5.10457V6.44303H71.1971V8.20502L72.5615 8.18813V13.8977C72.5615 14.8635 73.3558 15.6598 74.3574 15.6598L77.259 15.575V13.8977H74.3574V8.17118L77.5184 8.12032V6.44303H74.3574V3.76611Z" fill="#E1E1E6"/>
<path d="M86.9823 11.932C86.9823 10.9663 86.188 10.17 85.1864 10.17H82.9237H80.6611V8.20467H86.9823V6.52737L80.6611 6.44263C79.677 6.44263 78.8652 7.22198 78.8652 8.20467V10.17C78.8652 11.1357 79.6595 11.932 80.6611 11.932H82.9237H85.1864V13.8973H78.8652V15.5747L85.1864 15.6594C86.1705 15.6594 86.9823 14.88 86.9823 13.8973V11.932Z" fill="#E1E1E6"/>
<path d="M96.3599 6.45972H93.4583H90.5567C89.5726 6.45972 88.7607 7.23908 88.7607 8.22177V11.068V13.9144C88.7607 14.8801 89.555 15.6764 90.5567 15.6764L98.1558 15.5917V13.9144H90.5567V11.9491L98.1558 11.8644V10.1871V8.22177C98.1558 7.23908 97.3615 6.45972 96.3599 6.45972ZM96.3599 10.1701H90.5567V8.20482H93.4583H96.3599V10.1701Z" fill="#E1E1E6"/>
<path d="M107.551 6.45972L99.9518 6.5444V8.22177H107.551V10.1871L99.9518 10.2718V11.9491V13.9144C99.9518 14.8801 100.746 15.6764 101.748 15.6764H104.649H107.551C108.535 15.6764 109.347 14.8971 109.347 13.9144V11.068V8.22177C109.329 7.23908 108.535 6.45972 107.551 6.45972ZM107.551 13.8974H104.649H101.748V11.9321H107.551V13.8974Z" fill="#E1E1E6"/>
<path d="M113.84 8.17077L117 8.11991V6.44263H113.84V3.74878H113.149L112.043 5.08723V6.42569H110.679V8.18773L112.043 8.17077V13.8804C112.043 14.8461 112.838 15.6424 113.84 15.6424L116.741 15.5577V13.8804H113.84V8.17077Z" fill="#E1E1E6"/>
<path d="M17.8326 0.42807L14.9139 0.00450665C14.8275 -0.0124358 14.7412 0.0214471 14.7066 0.0553321L13.4632 1.64793C13.3769 1.74958 13.3596 1.88512 13.3941 2.00372C13.4287 2.12232 13.3251 2.22397 13.2042 2.20703L12.1852 1.98677C12.0297 1.95289 11.857 2.00372 11.7534 2.13927L7.71218 7.22202C7.64315 7.32367 7.50496 7.35758 7.38406 7.30672L5.84702 6.62905C5.70886 6.56124 5.55343 6.57819 5.43254 6.66289L4.65538 7.18811C4.53448 7.27281 4.36178 7.28976 4.22361 7.22202L3.84367 7.03566C3.60189 6.91706 3.3083 7.05262 3.23922 7.30672L2.96289 8.50967C2.89381 8.79767 3.0147 9.08568 3.27376 9.23819L3.86094 9.59394L5.7434 10.7291L6.65873 11.2882C6.91775 11.4407 7.24594 11.4068 7.47045 11.2205L9.0075 9.89896C9.12834 9.79725 9.31833 9.76341 9.45652 9.84811L9.92277 10.0853C10.0782 10.17 10.2682 10.1361 10.3891 10.0175L11.1663 9.30594C11.2871 9.18733 11.4771 9.17038 11.6153 9.23819L12.7724 9.76341C12.9451 9.84811 13.1524 9.79725 13.2733 9.6448L13.8086 8.96707L17.8671 3.8674C18.0571 3.6302 17.9362 3.27441 17.6253 3.20664L16.7273 3.00333C16.5373 2.96944 16.451 2.73225 16.5891 2.59671L17.988 0.885513C18.1262 0.682207 18.0398 0.461955 17.8326 0.42807Z" fill="#8257E6"/>
<path d="M4.44777 10.6953C4.36142 10.6445 4.27506 10.7292 4.3096 10.8139L4.74136 11.932C4.7759 12.0167 4.7759 12.1015 4.75863 12.1862L4.37869 13.6433C4.36142 13.7449 4.39596 13.8466 4.46504 13.8974L5.55306 14.7276C5.65668 14.7953 5.79485 14.7953 5.88119 14.7106L7.02104 13.728C7.09014 13.6772 7.17646 13.6433 7.24555 13.6263L8.54081 13.4907C8.62719 13.4739 8.66171 13.3553 8.57539 13.3044L4.44777 10.6953Z" fill="#8257E6"/>
<path d="M4.06792 14.4565C3.99884 14.4057 3.89522 14.3888 3.80887 14.4227L2.89355 14.8631C2.84173 14.8801 2.80719 14.9309 2.77265 14.9817L0.821119 19.7087C0.821119 19.7256 0.821119 19.7256 0.821119 19.7426C0.838389 19.7595 0.85566 19.7765 0.890194 19.7765L1.33923 19.607C1.3565 19.607 1.37376 19.607 1.39103 19.607C1.4083 19.624 1.42557 19.6579 1.4083 19.6748L0.00941363 21.9282C-0.0251269 21.979 0.0439557 22.0298 0.0784959 21.979L5.13868 16.9979C5.19049 16.9471 5.20776 16.8962 5.22503 16.8285L5.32865 15.5409C5.32865 15.4562 5.29411 15.3883 5.2423 15.3375L4.06792 14.4565Z" fill="#8257E6"/>
</g>
<defs>
<clipPath id="clip0_79_2862">
<rect width="117" height="22" fill="white"/>
</clipPath>
</defs>
</svg>
